# xmcd CD database file
#
# Track frame offsets:
#	150
#	23775
#	40637
#	60167
#	81557
#	101115
#	119430
#	138287
#	158065
#	163660
#	185015
#	221625
#
# Disc length: 4440 seconds
#
# Revision: 0
# Processed by: cddbd v1.5PL3 Copyright (c) Steve Scherf et al.
# Submitted via: CDex 1.51
#
DISCID=a011560c
DTITLE=Changin' My Life - Caravan
DYEAR=2003
DGENRE=JPop
TTITLE0=ETERNAL SNOW
TTITLE1=エトランゼ
TTITLE2=ジャカルタの風
TTITLE3=Love Chronicle
TTITLE4=IN FUTURE
TTITLE5=アジサイ
TTITLE6=ダリヤ
TTITLE7=SMILE -caravan version-
TTITLE8=コルドバの鐘
TTITLE9=TOKYO
TTITLE10=Myself -acoustic version-
TTITLE11=data
EXTD=YEAR: 2003
EXTT0=
EXTT1=
EXTT2=
EXTT3=
EXTT4=
EXTT5=
EXTT6=
EXTT7=
EXTT8=
EXTT9=
EXTT10=
EXTT11=
PLAYORDER=
